<svg width="144" height="75" viewBox="0 0 144 75" fill="none" xmlns="http://www.w3.org/2000/svg">
<g clip-path="url(#clip0_18_263)">
<path d="M143.192 0.97403H0V76.1396H143.192V0.97403Z" fill="#E98300"/>
<path d="M61.0909 28.4123H32.3084C31.1886 28.4123 30.1146 27.9675 29.3227 27.1756C28.5309 26.3838 28.086 25.3098 28.086 24.1899C28.086 23.0701 28.5309 21.9961 29.3227 21.2042C30.1146 20.4124 31.1886 19.9675 32.3084 19.9675H61.0909C62.2107 19.9675 63.2847 20.4124 64.0766 21.2042C64.8684 21.9961 65.3133 23.0701 65.3133 24.1899C65.3133 25.3098 64.8684 26.3838 64.0766 27.1756C63.2847 27.9675 62.2107 28.4123 61.0909 28.4123ZM59.6688 45.3312C59.6688 44.776 59.5595 44.2263 59.347 43.7135C59.1346 43.2006 58.8232 42.7346 58.4307 42.342C58.0381 41.9495 57.5721 41.6381 57.0593 41.4257C56.5464 41.2132 55.9967 41.1039 55.4415 41.1039H26.6591C25.5392 41.1039 24.4652 41.5488 23.6734 42.3406C22.8815 43.1325 22.4367 44.2064 22.4367 45.3263C22.4367 46.4461 22.8815 47.5201 23.6734 48.312C24.4652 49.1038 25.5392 49.5487 26.6591 49.5487H55.4415C56.561 49.5487 57.6348 49.1047 58.4272 48.314C59.2197 47.5233 59.6662 46.4506 59.6688 45.3312ZM13.9578 34.724C13.9565 35.28 14.0649 35.8307 14.2768 36.3447C14.4886 36.8587 14.7998 37.3259 15.1925 37.7195C15.5851 38.113 16.0516 38.4253 16.5651 38.6383C17.0786 38.8514 17.6291 38.961 18.185 38.961H46.9675C48.0874 38.961 49.1614 38.5162 49.9532 37.7243C50.7451 36.9325 51.1899 35.8585 51.1899 34.7386C51.1899 33.6188 50.7451 32.5448 49.9532 31.7529C49.1614 30.9611 48.0874 30.5162 46.9675 30.5162H18.185C17.6312 30.5149 17.0825 30.6228 16.5703 30.8335C16.0581 31.0443 15.5925 31.3539 15.1999 31.7446C14.8074 32.1354 14.4957 32.5996 14.2825 33.1108C14.0694 33.622 13.9591 34.1702 13.9578 34.724ZM73.5682 20.2013L71.776 26.8247H80.6786L74.6201 49.2955H82.2857L88.3052 26.8247H97.2078L98.961 20.2013H73.5779H73.5682ZM101.182 20.2013L93.3896 49.2955H116.766L118.471 42.8571H102.614L104.045 37.5682H118.208L119.815 31.6948H105.623L107.016 26.6201H122.825L124.568 20.211H101.192L101.182 20.2013ZM67.3831 60.1364C67.6996 60.1367 68.0129 60.073 68.3041 59.9491C68.5954 59.8253 68.8586 59.6438 69.0779 59.4156L68.4351 58.5974C68.1762 58.8596 67.8289 59.0159 67.461 59.0357C67.3376 59.0367 67.2154 59.0112 67.1025 58.9611C66.9897 58.911 66.8889 58.8374 66.8068 58.7452C66.7247 58.653 66.6633 58.5443 66.6266 58.4264C66.59 58.3085 66.5789 58.1842 66.5941 58.0617C66.5735 57.6905 66.6933 57.3251 66.9297 57.0382C67.1661 56.7513 67.5018 56.5638 67.8701 56.513C68.0714 56.507 68.2701 56.5588 68.4428 56.6624C68.6154 56.766 68.7547 56.917 68.8441 57.0974L69.8182 56.4156C69.6364 56.0988 69.3692 55.8395 69.0472 55.6673C68.7251 55.4951 68.3611 55.4168 67.9967 55.4416C67.6412 55.4297 67.2868 55.4899 66.9551 55.6185C66.6233 55.7471 66.321 55.9414 66.0663 56.1897C65.8115 56.4381 65.6096 56.7354 65.4727 57.0638C65.3358 57.3922 65.2666 57.7449 65.2695 58.1006C65.26 58.3768 65.3095 58.6518 65.4145 58.9073C65.5194 59.1629 65.6776 59.3932 65.8784 59.583C66.0792 59.7728 66.3181 59.9176 66.5792 60.008C66.8403 60.0984 67.1177 60.1322 67.3928 60.1071L67.3831 60.1364ZM71.9708 60.1364C72.6481 60.1215 73.2935 59.8458 73.7726 59.3667C74.2516 58.8877 74.5273 58.2422 74.5422 57.5649C74.5575 57.2847 74.5121 57.0045 74.4091 56.7434C74.3061 56.4823 74.1479 56.2466 73.9453 56.0524C73.7428 55.8581 73.5006 55.7099 73.2355 55.618C72.9703 55.526 72.6884 55.4924 72.4091 55.5195C71.7318 55.5344 71.0863 55.8101 70.6073 56.2891C70.1282 56.7682 69.8525 57.4136 69.8377 58.0909C69.8265 58.3696 69.8753 58.6475 69.9808 58.9058C70.0863 59.164 70.246 59.3966 70.4492 59.5878C70.6524 59.7789 70.8942 59.9242 71.1584 60.0138C71.4226 60.1034 71.703 60.1353 71.9805 60.1071L71.9708 60.1364ZM72.0292 59.0552C71.8991 59.0638 71.7686 59.0445 71.6465 58.9986C71.5244 58.9527 71.4136 58.8812 71.3214 58.789C71.2291 58.6968 71.1577 58.5859 71.1118 58.4639C71.0659 58.3418 71.0466 58.2113 71.0552 58.0812C71.0502 57.7231 71.1777 57.3759 71.4132 57.1062C71.6488 56.8365 71.9757 56.6633 72.3312 56.6201C72.4613 56.6115 72.5918 56.6308 72.7138 56.6767C72.8359 56.7226 72.9468 56.7941 73.039 56.8863C73.1312 56.9785 73.2027 57.0894 73.2486 57.2115C73.2945 57.3335 73.3138 57.464 73.3052 57.5942C73.3057 57.9474 73.1774 58.2887 72.9443 58.554C72.7112 58.8194 72.3893 58.9907 72.0389 59.0357L72.0292 59.0552ZM74.7175 60.0292H75.9838L76.6558 57.4675C76.6778 57.2247 76.79 56.9989 76.9703 56.8348C77.1507 56.6707 77.386 56.5802 77.6299 56.5812C77.7076 56.5679 77.7873 56.5723 77.863 56.594C77.9388 56.6157 78.0087 56.6542 78.0677 56.7065C78.1266 56.7589 78.173 56.8239 78.2034 56.8966C78.2338 56.9693 78.2475 57.0479 78.2435 57.1266C78.2392 57.2615 78.2196 57.3955 78.1851 57.526L77.5325 59.9708H78.7987L79.4416 57.5844C79.5236 57.3087 79.5727 57.0243 79.5876 56.737C79.5898 56.5673 79.5562 56.3989 79.4889 56.2431C79.4216 56.0872 79.3223 55.9472 79.1973 55.8323C79.0723 55.7175 78.9245 55.6302 78.7635 55.5763C78.6025 55.5224 78.4319 55.503 78.263 55.5195C77.8066 55.5451 77.3761 55.7395 77.0552 56.0649L77.1721 55.5195H75.9058L74.7175 60.0292ZM79.8604 60.0292H81.1169L81.8279 57.4675C81.8499 57.2247 81.9621 56.9989 82.1424 56.8348C82.3228 56.6707 82.5581 56.5802 82.8019 56.5812C82.8796 56.5679 82.9593 56.5723 83.0351 56.594C83.1109 56.6157 83.1808 56.6542 83.2397 56.7065C83.2986 56.7589 83.345 56.8239 83.3755 56.8966C83.4059 56.9693 83.4196 57.0479 83.4156 57.1266C83.4118 57.2616 83.3922 57.3956 83.3571 57.526L82.7045 59.9708H83.961L84.6039 57.5844C84.683 57.3213 84.732 57.0501 84.75 56.776C84.7584 56.6002 84.7283 56.4248 84.6618 56.2619C84.5954 56.099 84.4941 55.9526 84.3652 55.8329C84.2362 55.7133 84.0827 55.6232 83.9153 55.5691C83.7479 55.5149 83.5707 55.498 83.3961 55.5195C82.9363 55.5427 82.5019 55.7373 82.1786 56.0649L82.3149 55.5195H81.0487L79.8604 60.0292ZM86.4643 58.2467H89.513C89.6466 57.9385 89.7225 57.6084 89.737 57.2727C89.7489 57.0343 89.7097 56.7961 89.6221 56.574C89.5345 56.352 89.4004 56.1512 89.2288 55.9852C89.0573 55.8192 88.8522 55.6917 88.6274 55.6114C88.4026 55.5311 88.1632 55.4997 87.9253 55.5195C87.2243 55.5271 86.5544 55.8104 86.0604 56.3079C85.5665 56.8055 85.2882 57.4775 85.2857 58.1786C85.2715 58.4474 85.3158 58.7162 85.4156 58.9662C85.5154 59.2163 85.6683 59.4417 85.8637 59.627C86.0591 59.8122 86.2924 59.9528 86.5474 60.039C86.8024 60.1253 87.0732 60.1552 87.3409 60.1266C87.9606 60.1412 88.5651 59.9339 89.0454 59.5422L88.4708 58.763C88.1923 58.9816 87.8507 59.1045 87.4967 59.1136C87.3695 59.1335 87.2394 59.1253 87.1156 59.0897C86.9917 59.0542 86.8772 58.992 86.7798 58.9076C86.6825 58.8233 86.6047 58.7187 86.5519 58.6012C86.499 58.4837 86.4725 58.3561 86.474 58.2273L86.4643 58.2467ZM86.5812 57.4675C86.6593 57.1942 86.822 56.9527 87.0461 56.7777C87.2701 56.6026 87.5438 56.5032 87.8279 56.4935C87.9205 56.479 88.0151 56.4852 88.105 56.5117C88.1949 56.5383 88.2778 56.5844 88.3477 56.6468C88.4176 56.7093 88.4727 56.7864 88.5092 56.8728C88.5456 56.9591 88.5624 57.0525 88.5584 57.1461C88.5731 57.2429 88.5731 57.3415 88.5584 57.4383H86.6104L86.5812 57.4675ZM92.4253 60.1364C92.7385 60.1341 93.0481 60.0691 93.3358 59.9453C93.6236 59.8215 93.8836 59.6414 94.1006 59.4156L93.4578 58.5974C93.1995 58.8604 92.8519 59.0168 92.4838 59.0357C92.3603 59.0367 92.2381 59.0112 92.1253 58.9611C92.0124 58.911 91.9116 58.8374 91.8296 58.7452C91.7475 58.653 91.686 58.5443 91.6494 58.4264C91.6127 58.3085 91.6016 58.1842 91.6169 58.0617C91.5963 57.6905 91.7161 57.3251 91.9525 57.0382C92.1889 56.7513 92.5246 56.5638 92.8928 56.513C93.0939 56.5082 93.2922 56.5605 93.4646 56.664C93.637 56.7674 93.7765 56.9177 93.8669 57.0974L94.8409 56.4156C94.6591 56.0988 94.392 55.8395 94.0699 55.6673C93.7478 55.4951 93.3839 55.4168 93.0195 55.4416C92.3261 55.4467 91.6627 55.7243 91.1724 56.2146C90.6821 56.7049 90.4044 57.3684 90.3993 58.0617C90.3858 58.3306 90.428 58.5994 90.5235 58.8511C90.6191 59.1028 90.7657 59.332 90.9542 59.5242C91.1428 59.7164 91.3691 59.8674 91.619 59.9678C91.8688 60.0681 92.1367 60.1156 92.4058 60.1071L92.4253 60.1364ZM96.2435 60.1364C96.5584 60.1403 96.8705 60.0772 97.1591 59.9513L97.4513 58.8799C97.2487 58.9704 97.0302 59.0201 96.8084 59.026C96.7614 59.046 96.7097 59.0523 96.6592 59.0444C96.6088 59.0364 96.5615 59.0144 96.523 58.9809C96.4844 58.9474 96.456 58.9037 96.441 58.8548C96.426 58.806 96.4251 58.7539 96.4383 58.7045C96.4318 58.6398 96.4318 58.5745 96.4383 58.5097L96.9351 56.6396H97.9773L98.2695 55.5584H97.2565L97.5584 54.4188H96.3019L96 55.5195H95.4643L95.1721 56.6006H95.7078L95.1721 58.6558C95.1224 58.8368 95.0962 59.0234 95.0941 59.211C95.1058 59.3448 95.1449 59.4748 95.2092 59.5927C95.2734 59.7106 95.3613 59.814 95.4674 59.8963C95.5736 59.9787 95.6955 60.0382 95.8257 60.0711C95.9559 60.104 96.0915 60.1096 96.224 60.0877L96.2435 60.1364ZM98.1234 60.0584H99.3604L100.558 55.5195H99.2922L98.1234 60.0584ZM99.3604 55.0714H100.685L100.997 53.9513H99.6721L99.3604 55.0714ZM101.795 60.039H102.935L105.857 55.5584H104.503L102.74 58.4805L102.536 55.5584H101.308L101.795 60.039ZM105.487 60.039H106.753L107.971 55.5195H106.714L105.487 60.039ZM106.782 55.1006H108.127L108.429 53.9805H107.153L106.782 55.1006ZM109.558 60.1169C109.873 60.1211 110.185 60.058 110.474 59.9318L110.766 58.8604C110.56 58.9517 110.339 59.0014 110.114 59.0065C110.073 59.0169 110.031 59.0179 109.991 59.0096C109.95 59.0013 109.912 58.9837 109.879 58.9584C109.846 58.933 109.819 58.9005 109.801 58.8632C109.783 58.826 109.773 58.785 109.773 58.7435C109.766 58.6787 109.766 58.6135 109.773 58.5487L110.269 56.6786H111.312L111.604 55.5974H110.562L110.864 54.4578H109.607L109.373 55.5195H108.838L108.545 56.6006H109.101L108.565 58.6169C108.513 58.7975 108.483 58.9841 108.477 59.1721C108.484 59.3073 108.519 59.4397 108.58 59.5607C108.641 59.6817 108.726 59.7887 108.83 59.8749C108.935 59.9611 109.056 60.0245 109.187 60.0611C109.317 60.0977 109.454 60.1068 109.588 60.0877L109.558 60.1169ZM112.149 61.3636C112.54 61.3494 112.918 61.2247 113.241 61.004C113.563 60.7834 113.816 60.4757 113.971 60.1169L116.737 55.5195H115.373L113.708 58.539L113.503 55.5195H112.218L112.763 60C112.715 60.0858 112.644 60.1567 112.558 60.2048C112.472 60.2529 112.374 60.2764 112.276 60.2727C112.1 60.2646 111.93 60.2035 111.789 60.0974L111.117 61.013C111.413 61.2404 111.776 61.3637 112.149 61.3636Z" fill="white"/>
</g>
<defs>
<clipPath id="clip0_18_263">
<rect width="143.182" height="75" fill="white"/>
</clipPath>
</defs>
</svg>
